<svg width="71.000000" height="72.000000" viewBox="0 0 71 72" fill="none" xmlns="http://www.w3.org/2000/svg" xmlns:xlink="http://www.w3.org/1999/xlink">
	<desc>
			Created with Pixso.
	</desc>
	<defs/>
	<path id="Shape" d="M70.8057 39.2266C69.8383 29.7446 65.3077 20.4658 58.0481 13.1035C42.9297 -2.21875 20.5118 -4.42822 8.07806 8.19434C-4.3645 20.812 -2.19019 43.5371 12.9238 58.8643C20.1834 66.2266 29.3334 70.8208 38.6831 71.8018C39.93 71.9326 41.1592 72 42.3706 72C50.4113 72 57.5999 69.1426 62.8937 63.7739C68.9819 57.6045 71.7952 48.8833 70.8057 39.2266ZM32.5284 40.0361C38.3591 41.6562 43.7285 43.1729 48.6807 47.0068C54.3517 51.3989 57.6398 57.5278 62.1216 62.9912C60.4886 48.6587 53.3843 36.3467 39.0248 32.1211C32.484 30.1992 26.5289 28.5571 21.1197 24.0479C16.0433 19.8135 12.9903 14.0352 8.85461 8.97705C10.5586 23.5347 17.8493 35.9546 32.5284 40.0361Z" clip-rule="evenodd" fill="#FDD6BA" fill-opacity="1.000000" fill-rule="evenodd"/>
</svg>
